<svg width="32" height="32" viewBox="0 0 32 32" fill="none" xmlns="http://www.w3.org/2000/svg">
<path d="M13.9399 11.3791V13.5528H12.3487V16.2096H13.9399V24.1072H17.2107V16.2096H19.4049C19.4049 16.2096 19.6117 14.9357 19.7112 13.5418H17.2233V11.7264C17.2233 11.4533 17.5801 11.0887 17.9337 11.0887H19.7143V8.32144H17.2912C13.8594 8.32144 13.9399 10.9813 13.9399 11.3791Z" fill="#463F3A" fill-opacity="0.77"/>
<path d="M6.52858 3.5857C5.69125 3.5857 4.88822 3.91833 4.29614 4.51041C3.70406 5.10249 3.37144 5.90552 3.37144 6.74284V25.6857C3.37144 26.523 3.70406 27.3261 4.29614 27.9181C4.88822 28.5102 5.69125 28.8428 6.52858 28.8428H25.4714C26.3088 28.8428 27.1118 28.5102 27.7039 27.9181C28.296 27.3261 28.6286 26.523 28.6286 25.6857V6.74284C28.6286 5.90552 28.296 5.10249 27.7039 4.51041C27.1118 3.91833 26.3088 3.5857 25.4714 3.5857H6.52858ZM6.52858 0.428558H25.4714C27.1461 0.428558 28.7522 1.09381 29.9363 2.27797C31.1205 3.46213 31.7857 5.06819 31.7857 6.74284V25.6857C31.7857 27.3604 31.1205 28.9664 29.9363 30.1506C28.7522 31.3347 27.1461 32 25.4714 32H6.52858C4.85393 32 3.24786 31.3347 2.06371 30.1506C0.879548 28.9664 0.214294 27.3604 0.214294 25.6857V6.74284C0.214294 5.06819 0.879548 3.46213 2.06371 2.27797C3.24786 1.09381 4.85393 0.428558 6.52858 0.428558V0.428558Z" fill="#463F3A" fill-opacity="0.77"/>
</svg>
