<svg width="32" height="32" viewBox="0 0 32 32" fill="none" xmlns="http://www.w3.org/2000/svg">
<path fill-rule="evenodd" clip-rule="evenodd" d="M9.69438 0.511371C11.3777 0.433877 11.9144 0.416656 16.2024 0.416656C20.4904 0.416656 21.0271 0.435312 22.709 0.511371C24.3909 0.587429 25.5389 0.855786 26.5435 1.24469C27.5954 1.6422 28.5497 2.26358 29.339 3.06722C30.1426 3.85507 30.7626 4.80796 31.1586 5.86129C31.549 6.86584 31.8159 8.01389 31.8934 9.69292C31.9709 11.3791 31.9881 11.9158 31.9881 16.2024C31.9881 20.4903 31.9695 21.0271 31.8934 22.7104C31.8173 24.3894 31.549 25.5375 31.1586 26.542C30.7626 27.5955 30.1416 28.55 29.339 29.339C28.5497 30.1426 27.5954 30.7625 26.5435 31.1586C25.5389 31.549 24.3909 31.8159 22.7119 31.8934C21.0271 31.9709 20.4904 31.9881 16.2024 31.9881C11.9144 31.9881 11.3777 31.9694 9.69438 31.8934C8.01535 31.8173 6.8673 31.549 5.86276 31.1586C4.80931 30.7625 3.85484 30.1415 3.06582 29.339C2.26273 28.5506 1.64125 27.5966 1.24472 26.5434C0.855817 25.5389 0.588895 24.3909 0.511401 22.7118C0.433908 21.0256 0.416687 20.4889 0.416687 16.2024C0.416687 11.9144 0.435343 11.3777 0.511401 9.69579C0.58746 8.01389 0.855817 6.86584 1.24472 5.86129C1.64183 4.80807 2.26379 3.85409 3.06725 3.06579C3.85516 2.26287 4.80866 1.6414 5.86132 1.24469C6.86587 0.855786 8.01392 0.588864 9.69295 0.511371H9.69438ZM22.5813 3.3528C20.9166 3.27674 20.4172 3.26096 16.2024 3.26096C11.9876 3.26096 11.4882 3.27674 9.82354 3.3528C8.28371 3.42312 7.4485 3.67999 6.8917 3.89669C6.15551 4.1837 5.62884 4.52381 5.07634 5.07631C4.55261 5.58583 4.14955 6.20611 3.89672 6.89167C3.68002 7.44847 3.42315 8.28368 3.35283 9.82351C3.27677 11.4882 3.26099 11.9876 3.26099 16.2024C3.26099 20.4172 3.27677 20.9166 3.35283 22.5812C3.42315 24.1211 3.68002 24.9563 3.89672 25.5131C4.14929 26.1976 4.55254 26.819 5.07634 27.3284C5.58579 27.8522 6.20717 28.2555 6.8917 28.5081C7.4485 28.7247 8.28371 28.9816 9.82354 29.0519C11.4882 29.128 11.9862 29.1438 16.2024 29.1438C20.4186 29.1438 20.9166 29.128 22.5813 29.0519C24.1211 28.9816 24.9563 28.7247 25.5131 28.5081C26.2493 28.221 26.776 27.8809 27.3285 27.3284C27.8523 26.819 28.2555 26.1976 28.5081 25.5131C28.7248 24.9563 28.9817 24.1211 29.052 22.5812C29.128 20.9166 29.1438 20.4172 29.1438 16.2024C29.1438 11.9876 29.128 11.4882 29.052 9.82351C28.9817 8.28368 28.7248 7.44847 28.5081 6.89167C28.2211 6.15548 27.881 5.62881 27.3285 5.07631C26.8189 4.55262 26.1986 4.14956 25.5131 3.89669C24.9563 3.67999 24.1211 3.42312 22.5813 3.3528ZM14.1861 21.0687C15.3122 21.5374 16.566 21.6007 17.7335 21.2477C18.901 20.8946 19.9097 20.1472 20.5874 19.1331C21.2651 18.119 21.5696 16.9011 21.4491 15.6873C21.3285 14.4736 20.7903 13.3394 19.9264 12.4784C19.3757 11.928 18.7098 11.5066 17.9766 11.2444C17.2435 10.9823 16.4613 10.886 15.6865 10.9624C14.9116 11.0388 14.1634 11.2861 13.4956 11.6864C12.8278 12.0867 12.257 12.6301 11.8245 13.2775C11.3919 13.9249 11.1082 14.6601 10.9939 15.4302C10.8795 16.2004 10.9374 16.9863 11.1632 17.7315C11.3891 18.4766 11.7774 19.1623 12.3001 19.7394C12.8228 20.3165 13.4669 20.7704 14.1861 21.0687ZM10.465 10.465C11.2185 9.71154 12.1129 9.11387 13.0973 8.70611C14.0818 8.29835 15.1369 8.08848 16.2024 8.08848C17.2679 8.08848 18.323 8.29835 19.3075 8.70611C20.2919 9.11387 21.1863 9.71154 21.9398 10.465C22.6932 11.2184 23.2909 12.1129 23.6987 13.0973C24.1064 14.0817 24.3163 15.1368 24.3163 16.2024C24.3163 17.2679 24.1064 18.323 23.6987 19.3074C23.2909 20.2918 22.6932 21.1863 21.9398 21.9398C20.4181 23.4614 18.3543 24.3163 16.2024 24.3163C14.0505 24.3163 11.9867 23.4614 10.465 21.9398C8.94336 20.4181 8.08851 18.3543 8.08851 16.2024C8.08851 14.0504 8.94336 11.9866 10.465 10.465ZM26.1158 9.29684C26.3025 9.12071 26.452 8.90891 26.5554 8.67398C26.6588 8.43905 26.714 8.18577 26.7177 7.92912C26.7215 7.67248 26.6737 7.41769 26.5772 7.17984C26.4807 6.942 26.3374 6.72593 26.156 6.54444C25.9745 6.36295 25.7584 6.21971 25.5205 6.12322C25.2827 6.02672 25.0279 5.97893 24.7713 5.98268C24.5146 5.98642 24.2613 6.04161 24.0264 6.145C23.7915 6.24839 23.5797 6.39786 23.4036 6.58457C23.061 6.94768 22.8735 7.42999 22.8808 7.92912C22.888 8.42825 23.0896 8.90489 23.4425 9.25787C23.7955 9.61084 24.2721 9.81235 24.7713 9.81963C25.2704 9.82691 25.7527 9.63937 26.1158 9.29684Z" fill="#463F3A" fill-opacity="0.77"/>
</svg>
